<?xml version="1.0" encoding="UTF-8"?>
<svg xmlns="http://www.w3.org/2000/svg" xmlns:xlink="http://www.w3.org/1999/xlink" width="1800pt" height="1799.999925pt" viewBox="0 0 1800 1799.999925" version="1.2">
<g id="surface1">
<path style=" stroke:none;fill-rule:nonzero;fill:rgb(100%,75.689697%,2.749634%);fill-opacity:1;" d="M 1395.683594 1327.457031 C 839.289062 1594.007812 494.429688 1370.726562 273.632812 1235.179688 C 260.050781 1226.023438 236.578125 1236.996094 257.035156 1260.480469 C 330.863281 1350.257812 571.777344 1568.082031 886.574219 1568.082031 C 1201.371094 1568.082031 1389.035156 1394.4375 1412.222656 1363.960938 L 1412.222656 1364.019531 C 1435.695312 1333.542969 1418.304688 1316.199219 1395.683594 1327.457031 Z M 1395.683594 1327.457031 "/>
<path style=" stroke:none;fill-rule:nonzero;fill:rgb(12.939453%,12.939453%,12.939453%);fill-opacity:1;" d="M 1002.570312 601.550781 C 855.886719 607.011719 491.984375 648.800781 491.984375 959.472656 C 491.984375 1293.058594 908.625 1306.761719 1044.796875 1091.042969 C 1064.40625 1122.085938 1151.417969 1205.269531 1181.253906 1233.644531 L 1352.378906 1063.070312 C 1352.378906 1063.070312 1255.078125 986.027344 1255.078125 902.21875 L 1255.078125 454.175781 C 1255.078125 377.132812 1181.3125 203.488281 916.808594 203.488281 C 651.742188 203.488281 511.078125 370.992188 511.078125 521.210938 L 732.445312 541.964844 C 781.546875 391.175781 895.726562 391.175781 895.726562 391.175781 C 1018.371094 390.835938 1002.683594 481.980469 1002.683594 601.664062 Z M 1002.570312 865.941406 C 1002.570312 1109.636719 748.925781 1073.132812 748.925781 918.308594 C 748.925781 774.570312 901.011719 745.574219 1002.570312 742.277344 Z M 1002.570312 865.941406 "/>
<path style=" stroke:none;fill-rule:nonzero;fill:rgb(100%,75.689697%,2.749634%);fill-opacity:1;" d="M 1551.691406 1239.386719 C 1536.6875 1219.65625 1460.417969 1216.585938 1413.132812 1222.042969 C 1365.507812 1228.070312 1293.214844 1257.976562 1300.148438 1275.320312 C 1303.160156 1282.3125 1309.808594 1279.300781 1342.316406 1276.230469 C 1375.453125 1272.875 1467.292969 1260.707031 1486.902344 1285.953125 C 1506.792969 1311.824219 1457.6875 1433.667969 1448.652344 1453.457031 C 1439.671875 1473.300781 1451.664062 1478.757812 1468.261719 1465 C 1483.945312 1452.207031 1512.53125 1418.714844 1532.140625 1370.558594 L 1532.082031 1370.558594 C 1551.691406 1321.945312 1562.828125 1254.90625 1551.691406 1239.386719 Z M 1551.691406 1239.386719 "/>
</g>
</svg>
