<?xml version="1.0" encoding="UTF-8"?>
<svg xmlns="http://www.w3.org/2000/svg" xmlns:xlink="http://www.w3.org/1999/xlink" width="1800pt" height="1799.999925pt" viewBox="0 0 1800 1799.999925" version="1.2">
<g id="surface1">
<path style=" stroke:none;fill-rule:nonzero;fill:rgb(0%,78.42865%,32.548523%);fill-opacity:1;" d="M 862.851562 193.171875 C 886.03125 180.171875 914.574219 180.171875 937.71875 193.171875 C 1052.253906 257.425781 1396.925781 450.835938 1511.496094 515.089844 C 1534.675781 528.058594 1548.945312 552.078125 1548.945312 578.082031 C 1548.945312 706.589844 1548.945312 1093.375 1548.945312 1221.882812 C 1548.945312 1247.886719 1534.675781 1271.910156 1511.496094 1284.910156 C 1396.960938 1349.164062 1052.289062 1542.574219 937.71875 1606.828125 C 914.539062 1619.828125 886 1619.828125 862.851562 1606.828125 C 748.316406 1542.574219 403.644531 1349.164062 289.074219 1284.910156 C 265.929688 1271.910156 251.65625 1247.921875 251.65625 1221.917969 C 251.65625 1093.410156 251.65625 706.625 251.65625 578.117188 C 251.65625 552.113281 265.929688 528.089844 289.109375 515.089844 C 403.613281 450.835938 748.347656 257.425781 862.851562 193.171875 Z M 862.851562 193.171875 "/>
<path style=" stroke:none;fill-rule:nonzero;fill:rgb(41.178894%,94.119263%,68.238831%);fill-opacity:1;" d="M 262.035156 1255.019531 C 252.957031 1242.871094 251.65625 1231.335938 251.65625 1215.808594 C 251.65625 1088.054688 251.65625 703.484375 251.65625 575.691406 C 251.65625 549.828125 265.894531 525.941406 289.007812 513.042969 C 403.132812 449.164062 746.640625 256.878906 860.769531 192.964844 C 883.882812 180.035156 915.1875 180.308594 938.300781 193.238281 C 1052.425781 257.117188 1394.773438 447.765625 1508.902344 511.644531 C 1518.117188 516.832031 1525.152344 523.074219 1531.433594 531.296875 Z M 262.035156 1255.019531 "/>
<path style=" stroke:none;fill-rule:nonzero;fill:rgb(100%,100%,100%);fill-opacity:1;" d="M 900.300781 422.273438 C 636.40625 422.273438 422.355469 636.226562 422.355469 900 C 422.355469 1163.773438 636.40625 1377.726562 900.300781 1377.726562 C 1164.199219 1377.726562 1378.25 1163.773438 1378.25 900 C 1378.25 636.226562 1164.199219 422.273438 900.300781 422.273438 Z M 900.300781 1138.863281 C 768.523438 1138.863281 661.328125 1031.714844 661.328125 900 C 661.328125 768.285156 768.523438 661.136719 900.300781 661.136719 C 1032.078125 661.136719 1139.277344 768.285156 1139.277344 900 C 1139.277344 1031.714844 1032.078125 1138.863281 900.300781 1138.863281 Z M 900.300781 1138.863281 "/>
<path style=" stroke:none;fill-rule:nonzero;fill:rgb(0%,90.19928%,46.269226%);fill-opacity:1;" d="M 1531.363281 531.640625 C 1548.980469 548.121094 1548.640625 572.964844 1548.640625 592.515625 C 1548.640625 722.011719 1547.546875 1090.339844 1548.945312 1219.835938 C 1549.082031 1233.351562 1544.609375 1247.578125 1537.917969 1258.292969 L 886.40625 900 Z M 1531.363281 531.640625 "/>
<path style=" stroke:none;fill-rule:nonzero;fill:rgb(100%,100%,100%);fill-opacity:1;" d="M 1241.695312 763.507812 L 1275.832031 763.507812 L 1275.832031 1036.492188 L 1241.695312 1036.492188 Z M 1344.113281 763.507812 L 1378.25 763.507812 L 1378.25 1036.492188 L 1344.113281 1036.492188 Z M 1344.113281 763.507812 "/>
<path style=" stroke:none;fill-rule:nonzero;fill:rgb(100%,100%,100%);fill-opacity:1;" d="M 1173.414062 934.125 L 1446.527344 934.125 L 1446.527344 968.246094 L 1173.414062 968.246094 Z M 1173.414062 831.753906 L 1446.527344 831.753906 L 1446.527344 865.875 L 1173.414062 865.875 Z M 1173.414062 831.753906 "/>
</g>
</svg>
