<?xml version="1.0" encoding="UTF-8"?>
<svg xmlns="http://www.w3.org/2000/svg" xmlns:xlink="http://www.w3.org/1999/xlink" width="1800pt" height="1799.999925pt" viewBox="0 0 1800 1799.999925" version="1.2">
<defs>
<clipPath id="clip1">
  <path d="M 199 198.898438 L 1196 198.898438 L 1196 1270 L 199 1270 Z M 199 198.898438 "/>
</clipPath>
<clipPath id="clip2">
  <path d="M 605 531 L 1602 531 L 1602 1601.398438 L 605 1601.398438 Z M 605 531 "/>
</clipPath>
</defs>
<g id="surface1">
<g clip-path="url(#clip1)" clip-rule="nonzero">
<path style=" stroke:none;fill-rule:nonzero;fill:rgb(0.779724%,46.669006%,74.119568%);fill-opacity:1;" d="M 918.339844 198.898438 C 860.960938 199.085938 821.183594 204.140625 773.101562 212.449219 C 631.109375 237.183594 605.242188 289.121094 605.242188 384.84375 L 605.242188 531.144531 L 937.34375 531.144531 L 937.34375 604.976562 L 432.109375 604.976562 C 334.839844 604.976562 249.714844 650.824219 222.738281 760.722656 C 192.261719 886.863281 190.894531 965.863281 222.738281 1097.582031 C 246.910156 1195.8125 300.15625 1269.460938 397.460938 1269.460938 L 531.480469 1269.460938 L 531.480469 1081.042969 C 531.480469 971.550781 630.59375 863.386719 744.171875 863.386719 L 1011.179688 863.386719 C 1104.277344 863.386719 1195.679688 794.648438 1195.679688 701.804688 L 1195.679688 384.84375 C 1195.679688 294.808594 1130.773438 227.472656 1040.035156 212.375 C 1042.285156 212.152344 975.238281 198.679688 918.339844 198.898438 Z M 734.429688 346.5625 C 764.726562 346.5625 789.78125 371.554688 789.78125 402.011719 C 789.78125 432.761719 764.726562 457.3125 734.429688 457.3125 C 703.546875 457.3125 679.082031 432.800781 679.082031 402.011719 C 679.082031 371.667969 703.546875 346.5625 734.429688 346.5625 Z M 734.429688 346.5625 "/>
</g>
<g clip-path="url(#clip2)" clip-rule="nonzero">
<path style=" stroke:none;fill-rule:nonzero;fill:rgb(100%,75.689697%,2.749634%);fill-opacity:1;" d="M 882.582031 1601.703125 C 939.960938 1601.519531 979.742188 1596.460938 1027.820312 1588.15625 C 1169.8125 1563.421875 1195.679688 1511.480469 1195.679688 1415.757812 L 1195.679688 1269.460938 L 863.578125 1269.460938 L 863.578125 1195.628906 L 1368.851562 1195.628906 C 1466.117188 1195.628906 1551.246094 1149.78125 1578.21875 1039.882812 C 1608.699219 913.738281 1610.0625 834.738281 1578.21875 703.023438 C 1554.011719 604.789062 1500.765625 531.144531 1403.460938 531.144531 L 1269.441406 531.144531 L 1269.441406 719.5625 C 1269.441406 829.054688 1170.328125 937.21875 1056.75 937.21875 L 789.742188 937.21875 C 696.644531 937.21875 605.242188 1005.957031 605.242188 1098.800781 L 605.242188 1415.757812 C 605.242188 1505.796875 670.152344 1573.132812 760.886719 1588.230469 C 758.636719 1588.453125 825.683594 1601.925781 882.582031 1601.703125 Z M 1066.527344 1454.042969 C 1036.234375 1454.042969 1011.179688 1429.050781 1011.179688 1398.59375 C 1011.179688 1367.84375 1036.234375 1343.292969 1066.527344 1343.292969 C 1097.414062 1343.292969 1121.878906 1367.804688 1121.878906 1398.59375 C 1121.878906 1428.9375 1097.378906 1454.042969 1066.527344 1454.042969 Z M 1066.527344 1454.042969 "/>
</g>
</g>
</svg>
