<?xml version="1.0" encoding="UTF-8"?>
<svg xmlns="http://www.w3.org/2000/svg" xmlns:xlink="http://www.w3.org/1999/xlink" width="1800pt" height="1799.999925pt" viewBox="0 0 1800 1799.999925" version="1.2">
<defs>
<clipPath id="clip1">
  <path d="M 180 180 L 1620 180 L 1620 1620 L 180 1620 Z M 180 180 "/>
</clipPath>
</defs>
<g id="surface1">
<g clip-path="url(#clip1)" clip-rule="nonzero">
<path style=" stroke:none;fill-rule:nonzero;fill:rgb(95.289612%,38.819885%,9.408569%);fill-opacity:1;" d="M 900.011719 180.058594 C 1297.65625 180.058594 1620.003906 502.417969 1620.003906 900.050781 C 1620.003906 1297.695312 1297.65625 1620.042969 900.011719 1620.042969 C 502.375 1620.042969 180.019531 1297.695312 180.019531 900.050781 C 180.019531 502.417969 502.375 180.058594 900.011719 180.058594 "/>
</g>
<path style=" stroke:none;fill-rule:nonzero;fill:rgb(100%,100%,100%);fill-opacity:1;" d="M 410.421875 803.929688 C 463.511719 803.929688 506.542969 846.96875 506.542969 900.050781 C 506.542969 953.132812 463.511719 996.171875 410.421875 996.171875 C 357.339844 996.171875 314.296875 953.132812 314.296875 900.050781 C 314.296875 846.96875 357.339844 803.929688 410.421875 803.929688 "/>
<path style=" stroke:none;fill-rule:nonzero;fill:rgb(100%,100%,100%);fill-opacity:1;" d="M 668.335938 1247.496094 C 584.214844 1191.296875 521.640625 1105.375 495.644531 1004.734375 C 526.015625 979.984375 545.40625 942.300781 545.40625 900.050781 C 545.40625 857.800781 526.015625 820.117188 495.644531 795.375 C 521.640625 694.726562 584.214844 608.808594 668.335938 552.613281 L 738.617188 670.328125 C 666.421875 721.136719 619.214844 805.039062 619.214844 900.050781 C 619.214844 995.0625 666.421875 1078.964844 738.617188 1129.773438 L 668.335938 1247.496094 "/>
<path style=" stroke:none;fill-rule:nonzero;fill:rgb(100%,100%,100%);fill-opacity:1;" d="M 1228.054688 524.109375 C 1201.511719 570.085938 1142.726562 585.839844 1096.753906 559.296875 C 1050.773438 532.746094 1035.027344 473.972656 1061.566406 427.996094 C 1088.109375 382.015625 1146.894531 366.269531 1192.867188 392.8125 C 1238.839844 419.351562 1254.59375 478.136719 1228.054688 524.109375 "/>
<path style=" stroke:none;fill-rule:nonzero;fill:rgb(100%,100%,100%);fill-opacity:1;" d="M 714.960938 525.695312 C 805.6875 480.9375 911.390625 469.710938 1011.539062 497.511719 C 1017.792969 536.1875 1040.730469 571.828125 1077.3125 592.957031 C 1113.90625 614.078125 1156.238281 616.125 1192.859375 602.199219 C 1267.011719 675.023438 1310.136719 772.183594 1316.746094 873.132812 L 1179.660156 875.140625 C 1171.757812 787.210938 1122.691406 704.382812 1040.410156 656.871094 C 958.136719 609.371094 861.863281 608.296875 781.769531 645.417969 L 714.960938 525.695312 "/>
<path style=" stroke:none;fill-rule:nonzero;fill:rgb(100%,100%,100%);fill-opacity:1;" d="M 1061.566406 1372.113281 C 1035.027344 1326.140625 1050.773438 1267.355469 1096.753906 1240.804688 C 1142.726562 1214.261719 1201.511719 1230.019531 1228.054688 1275.992188 C 1254.59375 1321.964844 1238.839844 1380.75 1192.867188 1407.289062 C 1146.894531 1433.832031 1088.109375 1418.085938 1061.566406 1372.113281 "/>
<path style=" stroke:none;fill-rule:nonzero;fill:rgb(100%,100%,100%);fill-opacity:1;" d="M 1316.746094 926.96875 C 1310.136719 1027.917969 1267.011719 1125.078125 1192.859375 1197.90625 C 1156.238281 1183.980469 1113.90625 1186.023438 1077.3125 1207.144531 C 1040.730469 1228.273438 1017.792969 1263.914062 1011.539062 1302.589844 C 911.390625 1330.394531 805.6875 1319.164062 714.960938 1274.40625 L 781.769531 1154.683594 C 861.863281 1191.804688 958.136719 1190.730469 1040.410156 1143.230469 C 1122.691406 1095.726562 1171.757812 1012.890625 1179.660156 924.960938 L 1316.746094 926.96875 "/>
</g>
</svg>
